<svg id="Layer_1" enable-background="new 0 0 480 480" height="512" viewBox="0 0 480 480" width="512" xmlns="http://www.w3.org/2000/svg"><path d="m319.426 342.172c-11.782 0-22.471-6-28.594-16.051-2.299-3.773-7.222-4.971-10.994-2.67-3.773 2.298-4.969 7.22-2.67 10.994 4.258 6.99 10.022 12.634 16.733 16.673l-8.291 37.626-19.989-23.017c3.71-4.267 2.659-9.128-.372-11.764-3.335-2.9-8.388-2.546-11.286.787l-14.066 16.177-35.432-39.369c3.016-5.791 4.843-12.147 5.366-18.771 68.317 20.111 136.619-31.164 137.166-101.823.005-.166.003-65.567.003-65.733 0-30.877-25.122-55.997-56-55.997h-102c-30.878 0-56 25.122-56 56v51.862c-5.344-2.772-9-8.288-9-14.636v-49.96c0-64.238 52.262-116.5 116.5-116.5s116.5 52.262 116.5 116.5v49.96c0 4.418 3.582 8 8 8s8-3.582 8-8v-49.96c0-73.061-59.439-132.5-132.5-132.5s-132.5 59.439-132.5 132.5v49.96c0 15.303 10.707 28.165 25.077 31.62 1.494 40.859 26.003 75.946 60.923 92.643v2.107c0 8.913-3.476 17.287-9.788 23.581-11.192 11.161-25.298 9.761-23.641 9.761-45.635 0-82.571 36.929-82.571 82.571v47.257c0 4.418 3.582 8 8 8s8-3.582 8-8v-47.257c0-22.6 11.224-42.95 29.385-55.232v102.489c0 4.418 3.582 8 8 8s8-3.582 8-8v-110.382c15.507-5.188 20.485-2.172 31.64-4.557l11.162 50.66c1.412 6.41 9.549 8.48 13.853 3.524l28.786-33.147c9.746 10.829 9.428 10.598 10.429 11.337 1.56 1.156 3.612 1.766 5.744 1.494 3.883-.487 4.566-2.138 14.02-13.01l28.941 33.326c4.304 4.956 12.441 2.886 13.853-3.524l11.163-50.662c3.389.72 6.883 1.112 10.452 1.112 36.792 0 66.572 29.774 66.572 66.572v47.257c0 4.418 3.582 8 8 8s8-3.582 8-8v-47.257c0-45.638-36.932-82.572-82.574-82.571zm-170.426-132.047v-64.891c0-22.056 17.944-40 40-40h102c22.056 0 40 17.942 40 39.997v64.895c0 50.178-40.822 91-91 91s-91-40.823-91-91.001zm45.39 178.619-8.293-37.638c3.05-1.841 5.911-4.035 8.548-6.543l19.397 21.552zm162.225-1.219v84.475c0 4.418-3.582 8-8 8s-8-3.582-8-8v-84.475c0-4.418 3.582-8 8-8s8 3.581 8 8zm-94.041-123.648c21.679-2.049 31.282-22.2 31.681-23.057 2.621-5.641-1.938-11.988-8.1-11.327-15.358 1.621-15.396-9.834-28.166-13.208-5.581-1.476-11.617-.767-17.99 2.104-6.374-2.87-12.409-3.58-17.99-2.104-12.8 3.382-12.786 14.831-28.165 13.208-6.161-.66-10.722 5.683-8.1 11.327.398.857 10.002 21.008 31.681 23.057 9.597.909 17.45-2.145 22.574-5.068 6.797 3.877 14.548 5.827 22.575 5.068zm-54.32-20.247c15.942-5.681 13.539-17.542 27.74-9.329 2.479 1.434 5.533 1.434 8.012 0 14.18-8.201 11.756 3.613 27.74 9.329-8.585 6.552-19.141 5.356-26.773-.699-2.912-2.31-7.032-2.311-9.944 0-7.662 6.077-18.205 7.24-26.775.699z"/></svg>